 http://www.shotpix.com/images/37846365504103551167.jpg

General
Complete name                            : Gotta Be You [Official Music Video].MP4
Format                                   : MPEG-4
Format profile                           : Base Media / Version 2
Codec ID                                 : mp42
File size                                : 160 MiB
Duration                                 : 3mn 55s
Overall bit rate mode                    : Variable
Overall bit rate                         : 5 674 Kbps
Encoded date                             : UTC 2011-11-07 14:44:08
Tagged date                              : UTC 2011-11-07 14:44:08

Video
ID                                       : 1
Format                                   : AVC
Format/Info                              : Advanced Video Codec
Format profile                           : High@L4.0
Format settings, CABAC                   : Yes
Format settings, ReFrames                : 1 frame
Codec ID                                 : avc1
Codec ID/Info                            : Advanced Video Coding
Duration                                 : 3mn 55s
Bit rate                                 : 5 522 Kbps
Maximum bit rate                         : 13.0 Mbps
Width                                    : 1 920 pixels
Height                                   : 1 080 pixels
Display aspect ratio                     : 16:9
Frame rate mode                          : Variable
Frame rate                               : 23.976 fps
Minimum frame rate                       : 23.762 fps
Maximum frame rate                       : 24.341 fps
Color space                              : YUV
Chroma subsampling                       : 4:2:0
Bit depth                                : 8 bits
Scan type                                : Progressive
Bits/(Pixel*Frame)                       : 0.111
Stream size                              : 155 MiB (97%)
Tagged date                              : UTC 2011-11-07 14:44:10

Audio
ID                                       : 2
Format                                   : AAC
Format/Info                              : Advanced Audio Codec
Format profile                           : LC
Codec ID                                 : 40
Duration                                 : 3mn 55s
Bit rate mode                            : Variable
Bit rate                                 : 149 Kbps
Maximum bit rate                         : 169 Kbps
Channel(s)                               : 2 channels
Channel positions                        : Front: L R
Sampling rate                            : 44.1 KHz
Compression mode                         : Lossy
Stream size                              : 4.19 MiB (3%)
Title                                    : IsoMedia File Produced by Google, 5-11-2011
Encoded date                             : UTC 2011-11-07 14:44:10
Tagged date                              : UTC 2011-11-07 14:44:10
 
http://www.shotpix.com/images/49512485144882162817.gif